<svg width="416" height="48" viewBox="0 0 416 48" fill="none" xmlns="http://www.w3.org/2000/svg">
<rect width="416" height="48" rx="4" fill="#01BAB3"/>
<path fill-rule="evenodd" clip-rule="evenodd" d="M257.196 29.7007C257.583 30.0947 258.216 30.1004 258.61 29.7134L263.701 24.7134C263.892 24.5254 264 24.2683 264 24C264 23.7317 263.892 23.4746 263.701 23.2866L258.61 18.2866C258.216 17.8996 257.583 17.9053 257.196 18.2993C256.809 18.6933 256.814 19.3265 257.208 19.7134L260.555 23L245 23C244.448 23 244 23.4477 244 24C244 24.5523 244.448 25 245 25L260.555 25L257.208 28.2866C256.814 28.6735 256.809 29.3067 257.196 29.7007Z" fill="white"/>
<path d="M161.72 30.4727C160.771 30.9648 159.59 31.2109 158.178 31.2109C156.35 31.2109 154.885 30.6338 153.783 29.4795C152.682 28.3252 152.131 26.8105 152.131 24.9355C152.131 22.9199 152.749 21.291 153.985 20.0488C155.228 18.8066 156.795 18.1855 158.688 18.1855C159.906 18.1855 160.917 18.3584 161.72 18.7041V20.7783C160.87 20.2744 159.933 20.0225 158.907 20.0225C157.542 20.0225 156.435 20.459 155.585 21.332C154.741 22.2051 154.319 23.3711 154.319 24.8301C154.319 26.2188 154.715 27.3262 155.506 28.1523C156.297 28.9727 157.337 29.3828 158.626 29.3828C159.815 29.3828 160.847 29.1016 161.72 28.5391V30.4727ZM167.872 31.2109C166.483 31.2109 165.373 30.792 164.541 29.9541C163.715 29.1104 163.302 27.9941 163.302 26.6055C163.302 25.0938 163.732 23.9131 164.594 23.0635C165.461 22.2139 166.627 21.7891 168.092 21.7891C169.498 21.7891 170.594 22.2021 171.379 23.0283C172.164 23.8545 172.557 25 172.557 26.4648C172.557 27.9004 172.132 29.0518 171.282 29.9189C170.438 30.7803 169.302 31.2109 167.872 31.2109ZM167.969 23.415C167.172 23.415 166.542 23.6934 166.079 24.25C165.616 24.8066 165.385 25.5742 165.385 26.5527C165.385 27.4961 165.619 28.2402 166.088 28.7852C166.557 29.3242 167.184 29.5938 167.969 29.5938C168.771 29.5938 169.387 29.3271 169.814 28.7939C170.248 28.2607 170.465 27.502 170.465 26.5176C170.465 25.5273 170.248 24.7627 169.814 24.2236C169.387 23.6846 168.771 23.415 167.969 23.415ZM182.655 31H180.616V25.9287C180.616 24.2471 180.021 23.4062 178.832 23.4062C178.211 23.4062 177.698 23.6406 177.294 24.1094C176.89 24.5723 176.688 25.1582 176.688 25.8672V31H174.64V22H176.688V23.4941H176.723C177.396 22.3574 178.369 21.7891 179.641 21.7891C180.619 21.7891 181.366 22.1084 181.882 22.7471C182.397 23.3799 182.655 24.2969 182.655 25.498V31ZM189.897 30.9033C189.499 31.1025 188.975 31.2021 188.324 31.2021C186.578 31.2021 185.705 30.3643 185.705 28.6885V23.5996H184.202V22H185.705V19.917L187.744 19.3369V22H189.897V23.5996H187.744V28.0996C187.744 28.6328 187.841 29.0137 188.034 29.2422C188.228 29.4707 188.55 29.585 189.001 29.585C189.347 29.585 189.646 29.4854 189.897 29.2861V30.9033ZM192.684 20.1104C192.35 20.1104 192.062 20.002 191.822 19.7852C191.588 19.5684 191.471 19.293 191.471 18.959C191.471 18.625 191.588 18.3467 191.822 18.124C192.062 17.9014 192.35 17.79 192.684 17.79C193.029 17.79 193.322 17.9014 193.562 18.124C193.803 18.3467 193.923 18.625 193.923 18.959C193.923 19.2754 193.803 19.5479 193.562 19.7764C193.322 19.999 193.029 20.1104 192.684 20.1104ZM193.694 31H191.655V22H193.694V31ZM204.382 31H202.343V25.9287C202.343 24.2471 201.748 23.4062 200.559 23.4062C199.938 23.4062 199.425 23.6406 199.021 24.1094C198.616 24.5723 198.414 25.1582 198.414 25.8672V31H196.366V22H198.414V23.4941H198.449C199.123 22.3574 200.096 21.7891 201.367 21.7891C202.346 21.7891 203.093 22.1084 203.608 22.7471C204.124 23.3799 204.382 24.2969 204.382 25.498V31ZM214.727 31H212.688V29.5762H212.652C212.061 30.666 211.141 31.2109 209.893 31.2109C207.766 31.2109 206.702 29.9336 206.702 27.3789V22H208.741V27.168C208.741 28.7852 209.365 29.5938 210.613 29.5938C211.217 29.5938 211.712 29.3711 212.099 28.9258C212.491 28.4805 212.688 27.8975 212.688 27.1768V22H214.727V31ZM225.01 27.0537H218.875C218.898 27.8857 219.153 28.5273 219.64 28.9785C220.132 29.4297 220.806 29.6553 221.661 29.6553C222.622 29.6553 223.504 29.3682 224.307 28.7939V30.4375C223.486 30.9531 222.402 31.2109 221.055 31.2109C219.73 31.2109 218.69 30.8037 217.935 29.9893C217.185 29.1689 216.81 28.0176 216.81 26.5352C216.81 25.1348 217.223 23.9951 218.049 23.1162C218.881 22.2314 219.912 21.7891 221.143 21.7891C222.373 21.7891 223.325 22.1846 223.999 22.9756C224.673 23.7666 225.01 24.8652 225.01 26.2715V27.0537ZM223.041 25.6123C223.035 24.8799 222.862 24.3115 222.522 23.9072C222.183 23.4971 221.714 23.292 221.116 23.292C220.53 23.292 220.032 23.5059 219.622 23.9336C219.218 24.3613 218.969 24.9209 218.875 25.6123H223.041Z" fill="white"/>
</svg>
